<svg width="172" height="33" viewBox="0 0 172 33" fill="none" xmlns="http://www.w3.org/2000/svg">
<circle cx="16.5" cy="16.5" r="16.5" fill="#4600E9"/>
<path fill-rule="evenodd" clip-rule="evenodd" d="M26.8566 12.329C26.1873 12.7869 25.7631 13.3329 25.5909 13.9579C25.4905 14.3221 25.4558 14.6771 25.5169 14.7149C25.6108 14.7729 26.2449 14.4152 26.5437 14.1357C26.8673 13.833 27.1206 13.4043 27.2347 12.9659C27.3085 12.6827 27.3312 12.0728 27.2679 12.0728C27.2476 12.0728 27.0625 12.1881 26.8566 12.329ZM25.7985 14.1139C25.7631 14.0872 25.934 13.7611 26.0376 13.6575C26.2177 13.4774 26.2096 13.5189 26.0035 13.8334C25.8985 13.9936 25.8063 14.1198 25.7985 14.1139Z" fill="white"/>
<path d="M11.5345 16.9769C11.525 16.9863 11.3391 16.9723 11.1212 16.9456L10.7409 16.8991C10.7307 16.8978 10.7213 16.893 10.7144 16.8854L10.5001 16.6509C10.0337 16.1406 9.52573 15.9777 8.39767 15.9766C7.56586 15.9759 7.5391 15.9864 7.67937 16.2588C8.02383 16.9278 8.80297 17.3535 9.68281 17.3535C9.91909 17.3535 10.2249 17.3243 10.3625 17.2886C10.5068 17.2512 10.6425 17.2398 10.6835 17.2617C10.7224 17.2826 11.0413 17.3479 11.3921 17.4069L12.0299 17.5143L11.5345 16.9769Z" fill="white"/>
<path fill-rule="evenodd" clip-rule="evenodd" d="M10.9822 9.75486C10.9824 9.52701 11.0098 9.26316 11.0431 9.16843C11.0765 9.07374 11.1214 8.99623 11.143 8.99623C11.2117 8.99623 11.3765 9.26481 11.4749 9.53675C11.5763 9.81713 11.6155 10.586 11.542 10.8503L11.5242 10.9141C11.5156 10.9452 11.4771 10.9559 11.4536 10.9339L11.3908 10.8749C11.1108 10.6119 10.9819 10.1165 10.9822 9.75486ZM23.8039 12.0767C23.8214 11.9751 23.898 11.8837 24.0475 11.6936C24.2016 11.4976 24.3438 11.3472 24.3634 11.3593C24.421 11.3949 24.678 12.1111 24.776 12.5091C24.926 13.1186 24.9776 13.655 24.9483 14.2999C24.8949 15.4713 24.505 16.5511 23.6948 17.771C23.2895 18.3813 22.7325 19.0385 21.6182 20.2214C20.4681 21.4423 20.332 21.5927 19.9647 22.048C18.8675 23.4082 18.3069 24.7332 18.3058 25.9689C18.305 26.8389 18.5706 27.7198 19.0693 28.5013C19.1543 28.6344 19.2237 28.7532 19.2237 28.7653C19.2237 28.7775 18.1493 28.7874 16.8361 28.7874C15.5229 28.7874 14.4485 28.7777 14.4485 28.7659C14.4485 28.754 14.6012 28.4286 14.7878 28.0427C15.1383 27.3177 15.2802 26.9594 15.8199 25.4353C16.9872 22.1387 17.8928 20.7331 19.9664 18.9993C20.9423 18.1835 21.9485 17.3921 22.7989 16.4409C22.9411 16.2818 23.078 16.1178 23.2016 15.9437C23.5074 15.5127 23.7755 14.9885 23.9347 14.5065C24.0489 14.1608 24.0638 14.0481 24.065 13.5193C24.0658 13.1646 24.0435 12.8609 23.9182 12.5291L23.9178 12.528C23.8289 12.2923 23.7862 12.1793 23.8039 12.0767Z" fill="white"/>
<path d="M26.0193 8.64596C25.3125 8.93989 24.8446 9.43724 24.7278 10.0189C24.6601 10.3564 24.7042 10.6034 24.8323 10.6034C25.1312 10.6034 25.8841 10.0321 26.142 9.60971C26.2776 9.38765 26.4325 8.89874 26.4325 8.69293C26.4325 8.50343 26.3771 8.49714 26.0193 8.64596Z" fill="white"/>
<path d="M20.3045 6.15498C19.7286 6.83656 19.7322 8.22529 20.3114 8.9021L20.4632 9.07945C20.4707 9.08817 20.4743 9.09951 20.4734 9.11094L20.4431 9.46938C20.4039 9.93271 20.2795 10.521 20.1196 10.9994C19.8358 11.8482 19.1067 13.1159 18.3137 14.1392C17.8849 14.6925 16.8615 15.9377 16.6582 16.1578C16.6406 16.1769 16.6089 16.2096 16.5932 16.2303L16.1546 16.8059L15.8818 17.229C15.7318 17.4616 15.5804 17.7074 15.5453 17.7752L15.5117 17.8403C15.4975 17.8677 15.4598 17.8716 15.4403 17.8476L15.1831 17.5313C14.8546 17.1271 14.4039 16.7127 13.8034 16.2628L13.4237 15.9782C13.4154 15.972 13.4096 15.963 13.4075 15.9528L13.1915 14.9276C12.7956 13.0489 12.7425 12.833 12.6194 12.6009C12.4592 12.2989 11.4003 11.2415 10.7709 10.7549L10.2978 10.3892C10.2892 10.3825 10.2835 10.3729 10.2817 10.3622L10.2304 10.0514C10.1603 9.62684 10.0065 9.33029 9.70131 9.03108C9.46186 8.79634 8.73084 8.31626 8.6841 8.363C8.67129 8.37582 8.63846 8.51316 8.61114 8.66828C8.4738 9.44798 8.92534 10.2918 9.68258 10.6707C9.86101 10.7599 10.0484 10.833 10.0991 10.833C10.1497 10.833 10.3381 10.9513 10.5176 11.0958C11.0208 11.501 12.106 12.5804 12.205 12.7742C12.2537 12.8696 12.3435 13.1899 12.4046 13.486C12.4656 13.7821 12.5884 14.3435 12.6773 14.7336C12.7661 15.1237 12.8304 15.4512 12.8201 15.4616C12.7864 15.4953 11.7591 14.7071 11.4214 14.3885C10.9724 13.965 10.5963 13.3919 10.4353 12.8861C10.3115 12.4975 10.1684 12.4283 9.8633 12.1647C9.65875 11.9879 9.47155 11.8432 9.4474 11.8432C9.37628 11.8432 9.32866 12.2409 9.33197 12.8075C9.33693 13.6574 9.56155 14.3203 10.1677 15.2736C10.2265 15.366 10.1976 15.3601 9.83231 15.2047C9.28913 14.9735 8.49772 14.3359 8.45296 14.0933C8.41558 13.8909 8.25125 13.6023 8.08177 13.4415C7.91391 13.2822 7.50631 13.0964 7.19565 13.0375C6.82497 12.9672 6 12.9766 6 13.0511C6 13.2027 6.2603 13.6067 6.50236 13.8308C6.88305 14.1833 7.4362 14.4147 7.89811 14.4147C8.05574 14.4147 8.11566 14.4502 8.38275 14.7022C8.90197 15.1921 9.24317 15.4254 9.78015 15.658C10.6918 16.0529 10.8768 16.1711 11.231 16.585C11.4074 16.7911 11.5439 16.9674 11.5345 16.9769L12.0299 17.5143L12.3327 17.8586C13.9184 19.6622 14.9294 21.216 15.3461 22.4899C15.3885 22.6198 15.4378 22.7261 15.4556 22.7261C15.4734 22.7261 15.5583 22.566 15.6442 22.3702C15.9895 21.5835 16.6255 20.5366 17.0344 20.0818C17.2097 19.8867 17.2558 19.7908 17.357 19.4106C17.6526 18.2999 18.1126 17.3035 18.9575 15.9437C19.2714 15.4384 19.3023 15.406 20.6843 14.1299C22.5418 12.4146 22.7131 12.25 22.8745 12.0253C22.95 11.9202 23.1223 11.7175 23.2575 11.5747C23.8477 10.9511 24.1367 10.2465 24.1367 9.43113C24.1367 8.98585 24.0535 8.6145 23.9154 8.44396L23.8645 8.38117C23.8478 8.36055 23.8166 8.35989 23.7991 8.37979L23.6149 8.58861C22.8859 9.41534 22.5837 10.2738 22.7093 11.1612L22.7653 11.5569C22.7672 11.57 22.7629 11.5831 22.7538 11.5926L22.5916 11.7615C22.4944 11.8627 22.0223 12.3024 21.5425 12.7386C21.0627 13.1747 20.5211 13.6766 20.339 13.8538L20.1902 13.9986C20.1555 14.0323 20.1003 13.9918 20.122 13.9486L20.1842 13.8247C20.9644 12.2703 21.2476 10.8342 21.0391 9.49014C20.9589 8.97336 20.9589 8.97323 21.0601 8.72072C21.2114 8.34289 21.2312 7.86143 21.1143 7.39925C21.0162 7.01119 20.7184 6.35496 20.5374 6.12798L20.468 6.04084C20.4511 6.0197 20.4191 6.01924 20.4017 6.03989L20.3045 6.15498Z" fill="white"/>
<path d="M15.7768 27.4531H17.9162L18.1539 28.1819H15.5391L15.7768 27.4531Z" fill="#4600E9"/>
<path d="M16.1421 26.4258H17.7168L17.8743 26.8973H15.9453L16.1421 26.4258Z" fill="#4600E9"/>
<path d="M16.5132 25.4844H17.6726L17.8538 25.8702H16.332L16.5132 25.4844Z" fill="#4600E9"/>
<path d="M16.8459 24.6055H17.8093L17.9599 24.927H16.6953L16.8459 24.6055Z" fill="#4600E9"/>
<path d="M17.1811 23.8125H17.9649L18.0874 24.0483H17.0586L17.1811 23.8125Z" fill="#4600E9"/>
<circle cx="20.2742" cy="28.3133" r="0.492968" fill="white"/>
<path d="M57.4377 6.45703H62.1707L54.9624 19.1008V25.4092H50.5013V19.1008L43.293 6.45703H48.026L52.7319 15.0667L57.4377 6.45703Z" fill="#141414"/>
<path d="M67.916 25.707C65.8487 25.707 64.135 25.0663 62.7749 23.7847C61.4148 22.4852 60.7348 20.7975 60.7348 18.7218C60.7348 16.6641 61.4058 14.9855 62.7477 13.6859C64.1078 12.3864 65.7852 11.7366 67.78 11.7366C69.7385 11.7366 71.3615 12.3503 72.649 13.5776C73.9365 14.787 74.5803 16.3844 74.5803 18.3698C74.5803 18.7308 74.5531 19.1821 74.4987 19.7236H65.1142C65.2593 20.5719 65.5766 21.2127 66.0663 21.6459C66.574 22.079 67.1815 22.2956 67.8888 22.2956C68.4872 22.2956 69.004 22.1512 69.4392 21.8624C69.8745 21.5556 70.1465 21.1495 70.2553 20.6441L74.0363 21.6459C73.6736 22.9815 72.9301 23.9923 71.8058 24.6782C70.6996 25.3641 69.403 25.707 67.916 25.707ZM65.2502 17.0161H70.4185C70.3097 16.5288 70.0195 16.1046 69.548 15.7436C69.0947 15.3646 68.5144 15.175 67.8072 15.175C66.5378 15.175 65.6854 15.7887 65.2502 17.0161Z" fill="#141414"/>
<path d="M89.0429 21.9437C89.188 21.9437 89.3966 21.8985 89.6686 21.8083V25.4634C89.2878 25.6078 88.7528 25.68 88.0637 25.68C86.3228 25.68 85.1441 25.1926 84.5275 24.2179C83.5845 25.1926 82.2335 25.68 80.4745 25.68C79.0963 25.68 77.972 25.319 77.1015 24.597C76.2492 23.875 75.8231 22.8823 75.8231 21.6188C75.8231 20.4455 76.213 19.4979 76.9927 18.7759C77.7725 18.054 78.8243 17.6298 80.1481 17.5034L84.0379 17.1515V16.8807C84.0379 16.3573 83.8565 15.9421 83.4939 15.6353C83.1312 15.3104 82.6688 15.148 82.1066 15.148C81.0911 15.148 80.4836 15.6353 80.2841 16.61L76.3943 16.0685C76.63 14.5523 77.301 13.4513 78.4072 12.7654C79.5315 12.0795 80.8735 11.7366 82.433 11.7366C84.2827 11.7366 85.7334 12.1788 86.7852 13.0632C87.8551 13.9296 88.3901 15.166 88.3901 16.7724V21.2127C88.3901 21.7 88.6077 21.9437 89.0429 21.9437ZM84.0379 20.1568V19.8589L81.481 20.1568C81.0457 20.2109 80.7012 20.3553 80.4473 20.5899C80.1934 20.8065 80.0665 21.0683 80.0665 21.3751C80.0665 21.7361 80.2206 22.0159 80.5289 22.2144C80.8553 22.413 81.2633 22.5032 81.753 22.4852C82.4058 22.4491 82.9498 22.2325 83.3851 21.8354C83.8203 21.4383 84.0379 20.8787 84.0379 20.1568Z" fill="#141414"/>
<path d="M99.4558 11.7366C100.979 11.7366 102.221 12.1788 103.182 13.0632C104.162 13.9477 104.651 15.1841 104.651 16.7724V25.4092H100.299V18.0991C100.299 17.2868 100.1 16.6822 99.7006 16.2851C99.3016 15.8699 98.7576 15.6624 98.0685 15.6624C97.3794 15.6624 96.8263 15.879 96.4092 16.3122C96.0103 16.7454 95.8108 17.3771 95.8108 18.2074V25.4092H91.4585V6.45703H95.8108V13.1174C96.6994 12.1968 97.9144 11.7366 99.4558 11.7366Z" fill="#141414"/>
<path d="M115.943 12.0073H120.295V25.4092H115.943V24.2992C115.055 25.2197 113.84 25.68 112.298 25.68C110.847 25.68 109.614 25.2197 108.599 24.2992C107.601 23.3606 107.103 22.052 107.103 20.3733V12.0073H111.455V19.4257C111.455 20.2019 111.654 20.7885 112.053 21.1856C112.452 21.5646 112.996 21.7541 113.685 21.7541C114.375 21.7541 114.919 21.5376 115.318 21.1044C115.735 20.6712 115.943 20.0394 115.943 19.2091V12.0073Z" fill="#141414"/>
<path d="M131.072 11.7366C132.922 11.7366 134.491 12.3954 135.778 13.713C137.066 15.0126 137.71 16.6822 137.71 18.7218C137.71 20.7253 137.075 22.3859 135.806 23.7035C134.536 25.0211 132.968 25.68 131.1 25.68C129.504 25.68 128.198 25.1926 127.183 24.2179V25.4092H122.83V6.45703H127.183V13.1715C128.18 12.2149 129.477 11.7366 131.072 11.7366ZM130.202 21.9166C131.036 21.9166 131.743 21.6278 132.324 21.0502C132.904 20.4546 133.194 19.6784 133.194 18.7218C133.194 17.7471 132.904 16.971 132.324 16.3934C131.762 15.7977 131.054 15.4999 130.202 15.4999C129.332 15.4999 128.606 15.7977 128.026 16.3934C127.464 16.971 127.183 17.7471 127.183 18.7218C127.183 19.6784 127.464 20.4546 128.026 21.0502C128.606 21.6278 129.332 21.9166 130.202 21.9166Z" fill="#141414"/>
</svg>
